<?xml version="1.0" encoding="UTF-8" standalone="no"?>
<!DOCTYPE svg PUBLIC "-//W3C//DTD SVG 1.1//EN" "http://www.w3.org/Graphics/SVG/1.1/DTD/svg11.dtd">
<svg xmlns:dc="http://purl.org/dc/elements/1.1/" version="1.1" xmlns="http://www.w3.org/2000/svg" xmlns:xl="http://www.w3.org/1999/xlink" viewBox="-35.5 17.5 1675 772.83" width="1675" height="772.83">
  <defs>
    <marker orient="auto" overflow="visible" markerUnits="strokeWidth" id="FilledArrow_Marker" stroke-linejoin="miter" stroke-miterlimit="10" viewBox="-1 -4 10 8" markerWidth="10" markerHeight="8" color="black">
      <g>
        <path d="M 8 0 L 0 -3 L 0 3 Z" fill="currentColor" stroke="currentColor" stroke-width="1"/>
      </g>
    </marker>
  </defs>
  <g id="Canvas_1" stroke="none" stroke-opacity="1" fill="none" stroke-dasharray="none" fill-opacity="1">
    <title>Canvas 1</title>
    <rect fill="white" x="-35.5" y="17.5" width="1675" height="772.83"/>
    <g id="Canvas_1_Layer_1">
      <title>Layer 1</title>
      <g id="Graphic_6">
        <rect x="-25" y="325.73215" width="604" height="98.70719" fill="white"/>
        <rect x="-25" y="325.73215" width="604" height="98.70719" stroke="black" stroke-linecap="round" stroke-linejoin="round" stroke-width="1"/>
      </g>
      <g id="Graphic_2">
        <rect x="703" y="561" width="304.91755" height="34" stroke="black" stroke-linecap="round" stroke-linejoin="round" stroke-width="1"/>
        <text transform="translate(708 566)" fill="black">
          <tspan font-family="Helvetica Neue" font-size="19" fill="black" x="6252776e-19" y="18">id.loc.gov - </tspan>
          <tspan font-family="Courier New" font-size="19" fill="black" y="18">/suggest2/</tspan>
          <tspan font-family="Helvetica Neue" font-size="19" fill="black" y="18"> endpoint</tspan>
        </text>
      </g>
      <g id="Graphic_4">
        <text transform="translate(-20 361.0268)" fill="#333">
          <tspan font-family="Courier New" font-size="25" fill="#333" x="0" y="21">“Virginia Woolf”</tspan>
        </text>
      </g>
      <g id="Graphic_5">
        <text transform="translate(303 360.58575)" fill="black">
          <tspan font-family="Courier New" font-size="25" fill="black" x="0" y="21">“Woolf, Virginia”</tspan>
        </text>
      </g>
      <g id="Graphic_7">
        <text transform="translate(-20.000002 299.22815)" fill="black">
          <tspan font-family="Helvetica Neue" font-size="18" fill="black" x="5684342e-19" y="17">String input: “last, first” reverse order</tspan>
        </text>
      </g>
      <g id="Line_9">
        <line x1="225.03906" y1="375.5268" x2="288.10018" y2="375.1456" marker-end="url(#FilledArrow_Marker)" stroke="black" stroke-linecap="round" stroke-linejoin="round" stroke-width="1"/>
      </g>
      <g id="Graphic_17">
        <rect x="-25" y="541.7" width="604" height="179.3" fill="white"/>
        <rect x="-25" y="541.7" width="604" height="179.3" stroke="black" stroke-linecap="round" stroke-linejoin="round" stroke-width="1"/>
      </g>
      <g id="Graphic_14">
        <text transform="translate(-20.000004 515.196)" fill="black">
          <tspan font-family="Helvetica Neue" font-size="18" fill="black" x="2.502" y="17">MARC input: build string in subfield order: $a $b $c $q $d $g </tspan>
        </text>
      </g>
      <g id="Graphic_18">
        <text transform="translate(-12.05127 564)" fill="black">
          <tspan font-family="Courier" font-size="19" fill="black" x="0" y="18">&lt;datafield ind1=&quot;1&quot; ind2=&quot; &quot; tag=&quot;100&quot;&gt;</tspan>
          <tspan font-family="Courier" font-size="19" fill="black" x="0" y="41">    &lt;subfield code=&quot;a&quot;&gt;Woolf, Virginia,&lt;/subfield&gt;</tspan>
          <tspan font-family="Courier" font-size="19" fill="black" x="0" y="64">    &lt;subfield code=&quot;d&quot;&gt;1882-1941.&lt;/subfield&gt;</tspan>
          <tspan font-family="Courier" font-size="19" fill="black" x="0" y="87">&lt;/datafield&gt;</tspan>
        </text>
      </g>
      <g id="Graphic_19">
        <text transform="translate(113.36914 683.3)" fill="black">
          <tspan font-family="Courier New" font-size="19" fill="black" x="0" y="16">“Woolf, Virginia, 1882-1941”</tspan>
        </text>
      </g>
      <g id="Line_20">
        <line x1="272.99512" y1="661" x2="272.99512" y2="668.4" marker-end="url(#FilledArrow_Marker)" stroke="black" stroke-linecap="round" stroke-linejoin="round" stroke-width="1"/>
      </g>
      <g id="Line_22">
        <line x1="579" y1="375.08575" x2="804.0072" y2="486.51306" marker-end="url(#FilledArrow_Marker)" stroke="black" stroke-linecap="round" stroke-linejoin="round" stroke-width="1"/>
      </g>
      <g id="Line_23">
        <line x1="579" y1="631.35" x2="801.362" y2="506.8369" marker-end="url(#FilledArrow_Marker)" stroke="black" stroke-linecap="round" stroke-linejoin="round" stroke-width="1"/>
      </g>
      <g id="Graphic_29">
        <rect x="1041.7344" y="488.504" width="142" height="39" fill="white"/>
        <rect x="1041.7344" y="488.504" width="142" height="39" stroke="black" stroke-linecap="round" stroke-linejoin="round" stroke-width="1"/>
      </g>
      <g id="Graphic_28">
        <text transform="translate(1045.7305 493.504)" fill="#333">
          <tspan font-family="Courier New" font-size="25" fill="#333" x="0" y="21">n79041870</tspan>
        </text>
      </g>
      <g id="Graphic_26">
        <text transform="translate(1044.7937 462)" fill="black">
          <tspan font-family="Helvetica Neue" font-size="18" fill="black" x="0" y="17">LCCN</tspan>
        </text>
      </g>
      <g id="Line_30">
        <line x1="879.8787" y1="493" x2="1030.8733" y2="507.08453" marker-end="url(#FilledArrow_Marker)" stroke="black" stroke-linecap="round" stroke-linejoin="round" stroke-width="1"/>
      </g>
      <g id="Graphic_32">
        <rect x="980" y="375" width="521.5528" height="34" stroke="black" stroke-linecap="round" stroke-linejoin="round" stroke-width="1"/>
        <text transform="translate(985 380)" fill="black">
          <tspan font-family="Helvetica Neue" font-size="19" fill="black" x="6252776e-19" y="18">id.loc.gov - </tspan>
          <tspan font-family="Courier New" font-size="19" fill="black" y="18">/relationships/contributorto/</tspan>
          <tspan font-family="Helvetica Neue" font-size="19" fill="black" y="18"> endpoint</tspan>
        </text>
      </g>
      <g id="Graphic_35">
        <rect x="1017.3409" y="28" width="446.8711" height="218" stroke="black" stroke-linecap="round" stroke-linejoin="round" stroke-width="1"/>
        <text transform="translate(1022.3409 33)" fill="#444">
          <tspan font-family="Courier" font-weight="bold" font-size="13" fill="#444" x="0" y="13">{</tspan>
          <tspan font-family="Courier" font-size="13" fill="#444" x="0" y="29">&quot;</tspan>
          <tspan font-family="Courier" font-size="13" fill="#444" y="29">uri</tspan>
          <tspan font-family="Courier" font-size="13" fill="#444" y="29">&quot;: </tspan>
          <tspan font-family="Courier" font-size="13" fill="#0b7500" y="29">&quot;</tspan>
          <tspan font-family="Courier" font-size="13" fill="#050" y="29">http://id.loc.gov/resources/works/6537623</tspan>
          <tspan font-family="Courier" font-size="13" fill="#0b7500" y="29">&quot;</tspan>
          <tspan font-family="Courier" font-size="13" fill="#444" y="29">,</tspan>
          <tspan font-family="Courier" font-size="13" fill="#444" x="0" y="45">&quot;</tspan>
          <tspan font-family="Courier" font-size="13" fill="#444" y="45">label</tspan>
          <tspan font-family="Courier" font-size="13" fill="#444" y="45">&quot;: </tspan>
          <tspan font-family="Courier" font-size="13" fill="#0b7500" y="45">&quot;Woolf, Virginia, 1882-1941 Hours in a library&quot;</tspan>
          <tspan font-family="Courier" font-weight="bold" font-size="13" fill="#444" x="0" y="61">}</tspan>
          <tspan font-family="Courier" font-size="13" fill="#444" y="61">,</tspan>
          <tspan font-family="Courier" font-weight="bold" font-size="13" fill="#444" x="0" y="77">{</tspan>
          <tspan font-family="Courier" font-size="13" fill="#444" x="0" y="93">&quot;</tspan>
          <tspan font-family="Courier" font-size="13" fill="#444" y="93">uri</tspan>
          <tspan font-family="Courier" font-size="13" fill="#444" y="93">&quot;: </tspan>
          <tspan font-family="Courier" font-size="13" fill="#0b7500" y="93">&quot;</tspan>
          <tspan font-family="Courier" font-size="13" fill="#050" y="93">http://id.loc.gov/resources/works/6924873</tspan>
          <tspan font-family="Courier" font-size="13" fill="#0b7500" y="93">&quot;</tspan>
          <tspan font-family="Courier" font-size="13" fill="#444" y="93">,</tspan>
          <tspan font-family="Courier" font-size="13" fill="#444" x="0" y="109">&quot;</tspan>
          <tspan font-family="Courier" font-size="13" fill="#444" y="109">label</tspan>
          <tspan font-family="Courier" font-size="13" fill="#444" y="109">&quot;: </tspan>
          <tspan font-family="Courier" font-size="13" fill="#0b7500" y="109">&quot;Woolf, Virginia, 1882-1941 To the lighthouse&quot;</tspan>
          <tspan font-family="Courier" font-weight="bold" font-size="13" fill="#444" x="0" y="125">}</tspan>
          <tspan font-family="Courier" font-size="13" fill="#444" y="125">,</tspan>
          <tspan font-family="Courier" font-weight="bold" font-size="13" fill="#444" x="0" y="141">{</tspan>
          <tspan font-family="Courier" font-size="13" fill="#444" x="0" y="157">&quot;</tspan>
          <tspan font-family="Courier" font-size="13" fill="#444" y="157">uri</tspan>
          <tspan font-family="Courier" font-size="13" fill="#444" y="157">&quot;: </tspan>
          <tspan font-family="Courier" font-size="13" fill="#0b7500" y="157">&quot;</tspan>
          <tspan font-family="Courier" font-size="13" fill="#050" y="157">http://id.loc.gov/resources/works/1343231</tspan>
          <tspan font-family="Courier" font-size="13" fill="#0b7500" y="157">&quot;</tspan>
          <tspan font-family="Courier" font-size="13" fill="#444" y="157">,</tspan>
          <tspan font-family="Courier" font-size="13" fill="#444" x="0" y="173">&quot;</tspan>
          <tspan font-family="Courier" font-size="13" fill="#444" y="173">label</tspan>
          <tspan font-family="Courier" font-size="13" fill="#444" y="173">&quot;: </tspan>
          <tspan font-family="Courier" font-size="13" fill="#0b7500" y="173">&quot;Woolf, Virginia, 1882-1941 Flush&quot;</tspan>
          <tspan font-family="Courier" font-weight="bold" font-size="13" fill="#444" x="0" y="189">}</tspan>
          <tspan font-family="Courier" font-size="13" fill="#444" y="189">,</tspan>
        </text>
      </g>
      <g id="Line_36">
        <line x1="1185.7524" y1="488.504" x2="1235.1424" y2="417.14053" marker-end="url(#FilledArrow_Marker)" stroke="black" stroke-linecap="round" stroke-linejoin="round" stroke-width="1"/>
      </g>
      <g id="Graphic_39">
        <rect x="1317.5698" y="556.73215" width="183.983" height="32.531998" stroke="black" stroke-linecap="round" stroke-linejoin="round" stroke-width="1"/>
        <text transform="translate(1322.5698 561.73215)" fill="black">
          <tspan font-family="Helvetica Neue" font-size="19" fill="black" x="9947598e-20" y="18">viaf.org - cluster info</tspan>
        </text>
      </g>
      <g id="Line_40">
        <line x1="1185.7524" y1="508.004" x2="1387.1461" y2="488.4984" marker-end="url(#FilledArrow_Marker)" stroke="black" stroke-linecap="round" stroke-linejoin="round" stroke-width="1"/>
      </g>
      <g id="Group_41">
        <g id="Graphic_45">
          <path d="M 1190.4805 678.38 L 1193.5405 678.38 L 1193.5405 626 L 1190.4805 626 Z M 1196.7905 678.38 L 1206.1605 678.38 L 1206.1605 626 L 1196.7905 626 L 1196.7905 678.38 Z M 1209.2205 626 L 1209.2205 678.38 L 1218.5905 678.38 L 1218.5905 626 Z" fill="#900"/>
        </g>
        <g id="Graphic_44">
          <path d="M 1265.8605 678.38 L 1268.9205 678.38 L 1268.9205 626 L 1265.8605 626 Z M 1272.1805 626 L 1272.1805 678.38 L 1275.2405 678.38 L 1275.2405 626 Z M 1221.7405 678.38 L 1224.8005 678.38 L 1224.8005 626 L 1221.7405 626 L 1221.7405 678.38 Z M 1228.0605 626 L 1228.0605 678.38 L 1231.1205 678.38 L 1231.1205 626 Z" fill="#396"/>
        </g>
        <g id="Graphic_43">
          <path d="M 1234.2705 678.38 L 1243.6405 678.38 L 1243.6405 626 L 1234.2705 626 L 1234.2705 678.38 Z M 1246.6905 678.38 L 1249.9505 678.38 L 1249.9505 626 L 1246.6905 626 L 1246.6905 678.38 Z M 1253.0105 626 L 1253.0105 678.38 L 1262.3805 678.38 L 1262.3805 626 Z" fill="#069"/>
        </g>
        <g id="Graphic_42">
          <path d="M 1270.5805 684.15 L 1275.4005 695.01 L 1272.4905 695.01 L 1271.6005 692.86 L 1266.7405 692.86 L 1265.9305 695.01 L 1263.0605 695.01 L 1267.4405 684.15 L 1270.5805 684.15 M 1270.8005 690.97 L 1269.0505 686.75 L 1267.4605 690.97 L 1270.8005 690.97 M 1264.4905 684.15 L 1264.4905 686.14 L 1260.5605 686.14 L 1260.5605 695.01 L 1257.8505 695.01 L 1257.8505 686.14 L 1253.9205 686.14 L 1253.9205 684.15 L 1264.4905 684.15 M 1250.4905 684.15 L 1255.3105 695.01 L 1252.4005 695.01 L 1251.5105 692.86 L 1246.6505 692.86 L 1245.8405 695.01 L 1242.9705 695.01 L 1247.3505 684.15 L 1250.4905 684.15 M 1250.7105 690.97 L 1248.9605 686.75 L 1247.3705 690.97 L 1250.7105 690.97 M 1232.2105 684.15 L 1237.0005 684.15 C 1238.8505 684.15 1240.3105 684.66 1241.3905 685.67 C 1242.4705 686.68 1243.0105 687.99 1243.0105 689.6 C 1243.0105 691.28 1242.4605 692.61 1241.3705 693.57 C 1240.2805 694.53 1238.7305 695.01 1236.7005 695.01 L 1232.2105 695.01 L 1232.2105 684.15 M 1234.9205 686.14 L 1234.9205 693.02 L 1236.6905 693.02 C 1237.8405 693.02 1238.7105 692.71 1239.3205 692.08 C 1239.9305 691.45 1240.2305 690.62 1240.2305 689.58 C 1240.2305 688.51 1239.9205 687.67 1239.3005 687.06 C 1238.6905 686.44 1237.8105 686.13 1236.6605 686.13 L 1234.9305 686.13 M 1229.7205 684.14 L 1229.7205 695 L 1227.0105 695 L 1227.0105 684.14 L 1229.7205 684.14 M 1224.6005 684.14 L 1221.0605 689.24 L 1225.8605 695 L 1222.4705 695 L 1218.1705 689.91 L 1218.1705 695 L 1215.4605 695 L 1215.4605 684.14 L 1218.1705 684.14 L 1218.1705 689.03 L 1221.6205 684.14 L 1224.6005 684.14 M 1212.9605 684.14 L 1212.9605 695 L 1210.2505 695 L 1210.2505 684.14 L 1212.9605 684.14 M 1199.6305 688.06 L 1196.2705 695.14 L 1195.1005 695.14 L 1190.3105 684.15 L 1193.1805 684.15 L 1195.7405 690.15 L 1198.5305 684.15 L 1200.7105 684.15 L 1203.5005 690.15 L 1206.0405 684.15 L 1208.9105 684.15 L 1204.1505 695.15 L 1202.9805 695.15 L 1199.6105 688.07" fill="#484848"/>
        </g>
      </g>
      <g id="Graphic_46">
        <rect x="1136" y="707.734" width="193.711" height="32.531998" stroke="black" stroke-linecap="round" stroke-linejoin="round" stroke-width="1"/>
        <text transform="translate(1141 712.734)" fill="black">
          <tspan font-family="Helvetica Neue" font-size="19" fill="black" x="0" y="18">Wikidata - ecosystem</tspan>
        </text>
      </g>
      <g id="Line_48">
        <line x1="1185.7524" y1="527.504" x2="1227.7923" y2="617.0387" marker-end="url(#FilledArrow_Marker)" stroke="black" stroke-linecap="round" stroke-linejoin="round" stroke-width="1"/>
      </g>
      <g id="Graphic_49">
        <rect x="1525" y="469.206" width="104" height="77.59599" stroke="black" stroke-linecap="round" stroke-linejoin="round" stroke-width="1"/>
        <text transform="translate(1530 474.206)" fill="black">
          <tspan font-family="Helvetica Neue" font-size="19" fill="black" x="20.4475" y="18">Works</tspan>
          <tspan font-family="Helvetica Neue" font-size="19" fill="black" x="7.594" y="40.532">Identfiers</tspan>
          <tspan font-family="Helvetica Neue" font-size="19" fill="black" x="25.0075" y="63.063995">Stats</tspan>
        </text>
      </g>
      <g id="Line_50">
        <line x1="1460" y1="493.454" x2="1515.339" y2="505.84144" marker-end="url(#FilledArrow_Marker)" stroke="black" stroke-linecap="round" stroke-linejoin="round" stroke-width="1"/>
      </g>
      <g id="Graphic_52">
        <rect x="1377.5698" y="685.202" width="164.5698" height="77.59599" stroke="black" stroke-linecap="round" stroke-linejoin="round" stroke-width="1"/>
        <text transform="translate(1382.5698 690.202)" fill="black">
          <tspan font-family="Helvetica Neue" font-size="19" fill="black" x="50.732404" y="18">Works</tspan>
          <tspan font-family="Helvetica Neue" font-size="19" fill="black" x="37.878904" y="40.532">Identfiers</tspan>
          <tspan font-family="Helvetica Neue" font-size="19" fill="black" x="1.1044045" y="63.063995">Biblographic Data</tspan>
        </text>
      </g>
      <g id="Line_51">
        <line x1="1329.711" y1="724" x2="1367.6698" y2="724" marker-end="url(#FilledArrow_Marker)" stroke="black" stroke-linecap="round" stroke-linejoin="round" stroke-width="1"/>
      </g>
      <g id="Graphic_54">
        <ellipse cx="285.2044" cy="471.504" rx="17.2044266484064" ry="17.0000271643322" fill="#ffffc0"/>
        <ellipse cx="285.2044" cy="471.504" rx="17.2044266484064" ry="17.0000271643322" stroke="black" stroke-linecap="round" stroke-linejoin="round" stroke-width="1"/>
        <text transform="translate(276.44088 462.28)" fill="black">
          <tspan font-family="Helvetica Neue" font-size="16" fill="black" x="4.3155193" y="15">1</tspan>
        </text>
      </g>
      <g id="Graphic_55">
        <ellipse cx="845.4378" cy="625" rx="17.2044266484064" ry="17.0000271643323" fill="#ffffc0"/>
        <ellipse cx="845.4378" cy="625" rx="17.2044266484064" ry="17.0000271643323" stroke="black" stroke-linecap="round" stroke-linejoin="round" stroke-width="1"/>
        <text transform="translate(836.6743 615.776)" fill="black">
          <tspan font-family="Helvetica Neue" font-size="16" fill="black" x="4.3155193" y="15">2</tspan>
        </text>
      </g>
      <g id="Graphic_56">
        <ellipse cx="1159.2044" cy="319" rx="17.2044266484063" ry="17.0000271643322" fill="#ffffc0"/>
        <ellipse cx="1159.2044" cy="319" rx="17.2044266484063" ry="17.0000271643322" stroke="black" stroke-linecap="round" stroke-linejoin="round" stroke-width="1"/>
        <text transform="translate(1150.4409 309.776)" fill="black">
          <tspan font-family="Helvetica Neue" font-size="16" fill="black" x="4.3155193" y="15">3</tspan>
        </text>
      </g>
      <g id="Graphic_57">
        <ellipse cx="1360.3654" cy="461" rx="17.2044266484063" ry="17.0000271643322" fill="#ffffc0"/>
        <ellipse cx="1360.3654" cy="461" rx="17.2044266484063" ry="17.0000271643322" stroke="black" stroke-linecap="round" stroke-linejoin="round" stroke-width="1"/>
        <text transform="translate(1351.6019 451.776)" fill="black">
          <tspan font-family="Helvetica Neue" font-size="16" fill="black" x="4.3155193" y="15">4</tspan>
        </text>
      </g>
      <g id="Graphic_58">
        <ellipse cx="1317.2044" cy="660.575" rx="17.2044266484064" ry="17.0000271643323" fill="#ffffc0"/>
        <ellipse cx="1317.2044" cy="660.575" rx="17.2044266484064" ry="17.0000271643323" stroke="black" stroke-linecap="round" stroke-linejoin="round" stroke-width="1"/>
        <text transform="translate(1308.4409 651.351)" fill="black">
          <tspan font-family="Helvetica Neue" font-size="16" fill="black" x="4.3155193" y="15">5</tspan>
        </text>
      </g>
      <g id="Group_64">
        <g id="Graphic_63">
          <path d="M 893 534 C 865.33 534 837.67 534 810 534 C 810 508.33 810 482.67 810 457 C 837.67 457 865.33 457 893 457 C 893 482.67 893 508.33 893 534 Z M 861.23 495.5 C 861.23 487.6 861.29 479.71 861.21 471.81 C 861.14 465.4 858.03 460.87 852.75 459.58 C 850.88 459.13 848.86 459.15 846.9 459.16 C 838.35 459.2 833.93 463.32 833.83 471.95 C 833.65 487.74 833.71 503.53 833.83 519.32 C 833.86 523.36 834.92 527.33 838.5 529.71 C 843.66 533.14 849.35 533.18 854.83 530.7 C 859.85 528.43 861.19 523.75 861.23 518.63 C 861.29 510.91 861.24 503.2 861.23 495.48 Z M 863.66 495.5 C 863.66 503.75 863.58 512 863.69 520.25 C 863.78 527.3 867.08 531.07 873.94 532.07 C 875.86 532.35 877.88 532.34 879.81 532.12 C 885.5 531.48 889.2 528.28 889.64 522.56 C 890.2 515.34 890.01 508.06 890 500.81 C 890 500.24 888.91 499.23 888.27 499.18 C 885.79 498.99 883.28 499.17 880.79 499.07 C 879.14 499.01 878.62 499.68 878.65 501.28 C 878.72 506.03 878.68 510.79 878.67 515.54 C 878.67 517.06 878.79 518.61 878.55 520.1 C 878.44 520.78 877.57 521.34 877.05 521.95 C 876.59 521.3 876.05 520.7 875.7 520 C 875.52 519.64 875.66 519.12 875.66 518.67 C 875.66 503.16 875.66 487.64 875.66 472.13 C 875.66 471.5 875.53 470.8 875.77 470.27 C 876.02 469.72 876.6 469.1 877.14 468.97 C 877.49 468.89 878.26 469.55 878.43 470.03 C 878.7 470.76 878.67 471.61 878.67 472.41 C 878.69 477.25 878.74 482.1 878.65 486.94 C 878.62 488.66 879.16 489.4 880.93 489.32 C 883.24 489.22 885.57 489.25 887.88 489.32 C 889.44 489.37 890.14 488.83 890.12 487.16 C 890.05 481.42 890.24 475.68 890.03 469.94 C 889.78 463 886.15 459.52 879.27 459.2 C 877.94 459.14 876.59 459.14 875.26 459.19 C 867.75 459.49 863.8 463.43 863.69 471.03 C 863.57 479.19 863.66 487.35 863.67 495.51 Z M 832.27 520.65 C 830.64 520.65 829.33 520.65 828.01 520.65 C 824.51 520.63 824.48 520.63 824.48 517.02 C 824.46 505.1 824.47 493.18 824.45 481.26 C 824.44 474.9 824.45 468.53 824.31 462.17 C 824.29 461.38 823.47 459.97 822.95 459.93 C 819.7 459.72 816.42 459.83 813.23 459.83 C 813.04 460.42 812.89 460.67 812.89 460.91 C 812.87 483.85 812.84 506.79 812.93 529.74 C 812.93 530.36 814.13 531.48 814.79 531.5 C 819.95 531.65 825.13 531.65 830.29 531.5 C 830.97 531.48 832.13 530.4 832.18 529.75 C 832.39 526.91 832.27 524.04 832.27 520.64 Z" fill="white"/>
        </g>
        <g id="Graphic_62">
          <path d="M 861.24 495.5 C 861.24 503.22 861.29 510.93 861.23 518.65 C 861.19 523.77 859.85 528.45 854.83 530.72 C 849.34 533.2 843.66 533.15 838.5 529.73 C 834.92 527.35 833.86 523.38 833.83 519.34 C 833.72 503.55 833.66 487.76 833.83 471.97 C 833.93 463.34 838.35 459.22 846.9 459.18 C 848.85 459.17 850.87 459.14 852.75 459.6 C 858.04 460.88 861.15 465.41 861.21 471.83 C 861.29 479.72 861.23 487.62 861.23 495.52 Z M 849.26 495.58 C 849.26 488.14 849.28 480.71 849.24 473.27 C 849.24 471.77 849.78 469.43 847.51 469.49 C 845.29 469.55 845.88 471.9 845.88 473.39 C 845.84 488.17 845.85 502.96 845.86 517.74 C 845.86 518.54 845.77 519.43 846.07 520.12 C 846.34 520.74 847.13 521.58 847.62 521.53 C 848.18 521.48 848.86 520.65 849.14 520.01 C 849.41 519.41 849.26 518.6 849.26 517.89 C 849.26 510.45 849.26 503.02 849.26 495.58 Z" fill="#ed1c24"/>
        </g>
        <g id="Graphic_61">
          <path d="M 863.67 495.5 C 863.67 487.34 863.57 479.18 863.69 471.02 C 863.8 463.43 867.75 459.49 875.26 459.18 C 876.59 459.13 877.94 459.13 879.27 459.19 C 886.15 459.51 889.78 462.99 890.03 469.93 C 890.24 475.66 890.05 481.41 890.12 487.15 C 890.14 488.83 889.44 489.36 887.88 489.31 C 885.56 489.24 883.24 489.22 880.93 489.31 C 879.16 489.38 878.62 488.64 878.65 486.93 C 878.73 482.09 878.69 477.25 878.67 472.4 C 878.67 471.6 878.7 470.74 878.43 470.02 C 878.25 469.54 877.48 468.88 877.14 468.96 C 876.6 469.09 876.03 469.71 875.77 470.26 C 875.53 470.78 875.66 471.49 875.66 472.12 C 875.66 487.63 875.66 503.15 875.66 518.66 C 875.66 519.11 875.52 519.63 875.7 519.99 C 876.05 520.69 876.59 521.3 877.05 521.94 C 877.57 521.33 878.44 520.77 878.55 520.09 C 878.8 518.6 878.67 517.05 878.67 515.53 C 878.67 510.78 878.72 506.02 878.65 501.27 C 878.63 499.66 879.14 499 880.79 499.06 C 883.28 499.15 885.79 498.97 888.27 499.17 C 888.91 499.22 890 500.23 890 500.8 C 890 508.05 890.19 515.33 889.64 522.55 C 889.2 528.27 885.51 531.47 879.81 532.11 C 877.88 532.33 875.86 532.34 873.94 532.06 C 867.08 531.06 863.78 527.29 863.69 520.24 C 863.58 511.99 863.66 503.74 863.66 495.49 Z" fill="#ed1c24"/>
        </g>
        <g id="Graphic_60">
          <path d="M 832.28 520.65 C 832.28 524.05 832.4 526.92 832.19 529.76 C 832.14 530.41 830.97 531.49 830.3 531.51 C 825.14 531.66 819.96 531.66 814.8 531.51 C 814.14 531.49 812.94 530.36 812.94 529.75 C 812.85 506.81 812.88 483.87 812.9 460.92 C 812.9 460.67 813.05 460.43 813.24 459.84 C 816.43 459.84 819.71 459.74 822.96 459.94 C 823.48 459.97 824.3 461.39 824.32 462.18 C 824.46 468.54 824.45 474.9 824.46 481.27 C 824.48 493.19 824.47 505.11 824.49 517.03 C 824.49 520.64 824.52 520.64 828.02 520.66 C 829.33 520.66 830.64 520.66 832.28 520.66 Z" fill="#ed1c24"/>
        </g>
        <g id="Graphic_59">
          <path d="M 849.26 495.58 C 849.26 503.02 849.26 510.45 849.26 517.89 C 849.26 518.61 849.41 519.41 849.14 520.01 C 848.85 520.65 848.18 521.48 847.62 521.53 C 847.13 521.57 846.34 520.74 846.07 520.12 C 845.77 519.43 845.86 518.54 845.86 517.74 C 845.86 502.96 845.83 488.17 845.88 473.39 C 845.88 471.9 845.29 469.55 847.51 469.49 C 849.78 469.43 849.23 471.77 849.24 473.27 C 849.28 480.71 849.26 488.14 849.26 495.58 Z" fill="white"/>
        </g>
      </g>
      <g id="Group_65">
        <g id="Graphic_70">
          <path d="M 1282.2764 357.5 C 1254.6064 357.5 1226.9464 357.5 1199.2764 357.5 C 1199.2764 331.83 1199.2764 306.17 1199.2764 280.5 C 1226.9464 280.5 1254.6064 280.5 1282.2764 280.5 C 1282.2764 306.17 1282.2764 331.83 1282.2764 357.5 Z M 1250.5064 319 C 1250.5064 311.1 1250.5664 303.21 1250.4864 295.31 C 1250.4164 288.9 1247.3064 284.37 1242.0264 283.08 C 1240.1564 282.63 1238.1364 282.65 1236.1764 282.66 C 1227.6264 282.7 1223.2064 286.82 1223.1064 295.45 C 1222.9264 311.24 1222.9864 327.03 1223.1064 342.82 C 1223.1364 346.86 1224.1964 350.83 1227.7764 353.21 C 1232.9364 356.64 1238.6264 356.68 1244.1064 354.2 C 1249.1264 351.93 1250.4664 347.25 1250.5064 342.13 C 1250.5664 334.41 1250.5164 326.7 1250.5064 318.98 Z M 1252.9364 319 C 1252.9364 327.25 1252.8564 335.5 1252.9664 343.75 C 1253.0564 350.8 1256.3564 354.57 1263.2164 355.57 C 1265.1364 355.85 1267.1564 355.84 1269.0864 355.62 C 1274.7764 354.98 1278.4764 351.78 1278.9164 346.06 C 1279.4764 338.84 1279.2864 331.56 1279.2764 324.31 C 1279.2764 323.74 1278.1864 322.73 1277.5464 322.68 C 1275.0664 322.49 1272.5564 322.67 1270.0664 322.57 C 1268.4164 322.51 1267.8964 323.18 1267.9264 324.78 C 1267.9964 329.53 1267.9564 334.29 1267.9464 339.04 C 1267.9464 340.56 1268.0664 342.11 1267.8264 343.6 C 1267.7164 344.28 1266.8464 344.84 1266.3264 345.45 C 1265.8664 344.8 1265.3264 344.2 1264.9764 343.5 C 1264.7964 343.14 1264.9364 342.62 1264.9364 342.17 C 1264.9364 326.66 1264.9364 311.14 1264.9364 295.63 C 1264.9364 295 1264.8064 294.3 1265.0464 293.77 C 1265.2964 293.22 1265.8764 292.6 1266.4164 292.47 C 1266.7664 292.39 1267.5364 293.05 1267.7064 293.53 C 1267.9764 294.26 1267.9464 295.11 1267.9464 295.91 C 1267.9664 300.75 1268.0164 305.6 1267.9264 310.44 C 1267.8964 312.16 1268.4364 312.9 1270.2064 312.82 C 1272.5164 312.72 1274.8464 312.75 1277.1564 312.82 C 1278.7164 312.87 1279.4164 312.33 1279.3964 310.66 C 1279.3264 304.92 1279.5164 299.18 1279.3064 293.44 C 1279.0564 286.5 1275.4264 283.02 1268.5464 282.7 C 1267.2164 282.64 1265.8664 282.64 1264.5364 282.69 C 1257.0264 282.99 1253.0764 286.93 1252.9664 294.53 C 1252.8464 302.69 1252.9364 310.85 1252.9464 319.01 Z M 1221.5464 344.15 C 1219.9164 344.15 1218.6064 344.15 1217.2864 344.15 C 1213.7864 344.13 1213.7564 344.13 1213.7564 340.52 C 1213.7364 328.6 1213.7464 316.68 1213.7264 304.76 C 1213.7164 298.4 1213.7264 292.03 1213.5864 285.67 C 1213.5664 284.88 1212.7464 283.47 1212.2264 283.43 C 1208.9764 283.22 1205.6964 283.33 1202.5064 283.33 C 1202.3164 283.92 1202.1664 284.17 1202.1664 284.41 C 1202.1464 307.35 1202.1164 330.29 1202.2064 353.24 C 1202.2064 353.86 1203.4064 354.98 1204.0664 355 C 1209.2264 355.15 1214.4064 355.15 1219.5664 355 C 1220.2464 354.98 1221.4064 353.9 1221.4564 353.25 C 1221.6664 350.41 1221.5464 347.54 1221.5464 344.14 Z" fill="white"/>
        </g>
        <g id="Graphic_69">
          <path d="M 1250.5164 319 C 1250.5164 326.72 1250.5664 334.43 1250.5064 342.15 C 1250.4664 347.27 1249.1264 351.95 1244.1064 354.22 C 1238.6164 356.7 1232.9364 356.65 1227.7764 353.23 C 1224.1964 350.85 1223.1364 346.88 1223.1064 342.84 C 1222.9964 327.05 1222.9364 311.26 1223.1064 295.47 C 1223.2064 286.84 1227.6264 282.72 1236.1764 282.68 C 1238.1264 282.67 1240.1464 282.64 1242.0264 283.1 C 1247.3164 284.38 1250.4264 288.91 1250.4864 295.33 C 1250.5664 303.22 1250.5064 311.12 1250.5064 319.02 Z M 1238.5364 319.08 C 1238.5364 311.64 1238.5564 304.21 1238.5164 296.77 C 1238.5164 295.27 1239.0564 292.93 1236.7864 292.99 C 1234.5664 293.05 1235.1564 295.4 1235.1564 296.89 C 1235.1164 311.67 1235.1264 326.46 1235.1364 341.24 C 1235.1364 342.04 1235.0464 342.93 1235.3464 343.62 C 1235.6164 344.24 1236.4064 345.08 1236.8964 345.03 C 1237.4564 344.98 1238.1364 344.15 1238.4164 343.51 C 1238.6864 342.91 1238.5364 342.1 1238.5364 341.39 C 1238.5364 333.95 1238.5364 326.52 1238.5364 319.08 Z" fill="#ed1c24"/>
        </g>
        <g id="Graphic_68">
          <path d="M 1252.9464 319 C 1252.9464 310.84 1252.8464 302.68 1252.9664 294.52 C 1253.0764 286.93 1257.0264 282.99 1264.5364 282.68 C 1265.8664 282.63 1267.2164 282.63 1268.5464 282.69 C 1275.4264 283.01 1279.0564 286.49 1279.3064 293.43 C 1279.5164 299.16 1279.3264 304.91 1279.3964 310.65 C 1279.4164 312.33 1278.7164 312.86 1277.1564 312.81 C 1274.8364 312.74 1272.5164 312.72 1270.2064 312.81 C 1268.4364 312.88 1267.8964 312.14 1267.9264 310.43 C 1268.0064 305.59 1267.9664 300.75 1267.9464 295.9 C 1267.9464 295.1 1267.9764 294.24 1267.7064 293.52 C 1267.5264 293.04 1266.7564 292.38 1266.4164 292.46 C 1265.8764 292.59 1265.3064 293.21 1265.0464 293.76 C 1264.8064 294.28 1264.9364 294.99 1264.9364 295.62 C 1264.9364 311.13 1264.9364 326.65 1264.9364 342.16 C 1264.9364 342.61 1264.7964 343.13 1264.9764 343.49 C 1265.3264 344.19 1265.8664 344.8 1266.3264 345.44 C 1266.8464 344.83 1267.7164 344.27 1267.8264 343.59 C 1268.0764 342.1 1267.9464 340.55 1267.9464 339.03 C 1267.9464 334.28 1267.9964 329.52 1267.9264 324.77 C 1267.9064 323.16 1268.4164 322.5 1270.0664 322.56 C 1272.5564 322.65 1275.0664 322.47 1277.5464 322.67 C 1278.1864 322.72 1279.2764 323.73 1279.2764 324.3 C 1279.2764 331.55 1279.4664 338.83 1278.9164 346.05 C 1278.4764 351.77 1274.7864 354.97 1269.0864 355.61 C 1267.1564 355.83 1265.1364 355.84 1263.2164 355.56 C 1256.3564 354.56 1253.0564 350.79 1252.9664 343.74 C 1252.8564 335.49 1252.9364 327.24 1252.9364 318.99 Z" fill="#ed1c24"/>
        </g>
        <g id="Graphic_67">
          <path d="M 1221.5564 344.15 C 1221.5564 347.55 1221.6764 350.42 1221.4664 353.26 C 1221.4164 353.91 1220.2464 354.99 1219.5764 355.01 C 1214.4164 355.16 1209.2364 355.16 1204.0764 355.01 C 1203.4164 354.99 1202.2164 353.86 1202.2164 353.25 C 1202.1264 330.31 1202.1564 307.37 1202.1764 284.42 C 1202.1764 284.17 1202.3264 283.93 1202.5164 283.34 C 1205.7064 283.34 1208.9864 283.24 1212.2364 283.44 C 1212.7564 283.47 1213.5764 284.89 1213.5964 285.68 C 1213.7364 292.04 1213.7264 298.4 1213.7364 304.77 C 1213.7564 316.69 1213.7464 328.61 1213.7664 340.53 C 1213.7664 344.14 1213.7964 344.14 1217.2964 344.16 C 1218.6064 344.16 1219.9164 344.16 1221.5564 344.16 Z" fill="#ed1c24"/>
        </g>
        <g id="Graphic_66">
          <path d="M 1238.5364 319.08 C 1238.5364 326.52 1238.5364 333.95 1238.5364 341.39 C 1238.5364 342.11 1238.6864 342.91 1238.4164 343.51 C 1238.1264 344.15 1237.4564 344.98 1236.8964 345.03 C 1236.4064 345.07 1235.6164 344.24 1235.3464 343.62 C 1235.0464 342.93 1235.1364 342.04 1235.1364 341.24 C 1235.1364 326.46 1235.1064 311.67 1235.1564 296.89 C 1235.1564 295.4 1234.5664 293.05 1236.7864 292.99 C 1239.0564 292.93 1238.5064 295.27 1238.5164 296.77 C 1238.5564 304.21 1238.5364 311.64 1238.5364 319.08 Z" fill="white"/>
        </g>
      </g>
      <g id="Line_71">
        <line x1="1240" y1="280.5" x2="1240.5537" y2="255.8975" marker-end="url(#FilledArrow_Marker)" stroke="black" stroke-linecap="round" stroke-linejoin="round" stroke-width="1"/>
      </g>
      <g id="Graphic_75">
        <path d="M 1414.7098 527.494 C 1415.1598 527.214 1415.5698 526.764 1416.0498 526.694 C 1418.2598 526.364 1419.6298 525.044 1420.2298 523.014 C 1422.7098 514.594 1425.1698 506.174 1427.5198 497.724 C 1428.1898 495.304 1427.5198 494.544 1424.8398 493.924 C 1424.5798 493.864 1424.2998 493.834 1424.0398 493.454 L 1451.9098 493.454 C 1451.1698 496.314 1450.4098 499.214 1449.6598 502.104 C 1449.4598 502.074 1449.2598 502.044 1449.0598 502.014 C 1448.8698 501.064 1448.7098 500.114 1448.4898 499.174 C 1448.0398 497.234 1446.8298 495.854 1444.8898 495.584 C 1442.1298 495.204 1439.3198 495.114 1436.5298 494.964 C 1436.2398 494.944 1435.7398 495.274 1435.6598 495.534 C 1434.4098 499.664 1433.2198 503.814 1431.8498 508.524 C 1434.4498 508.034 1436.8098 508.024 1438.7398 507.104 C 1440.5898 506.224 1441.9998 504.394 1443.9298 502.694 C 1442.5998 507.374 1441.3298 511.834 1440.0498 516.294 C 1439.8498 516.254 1439.6598 516.214 1439.4598 516.164 C 1439.4598 515.524 1439.4498 514.874 1439.4598 514.234 C 1439.5098 511.744 1438.4298 510.464 1435.9898 510.134 C 1433.0698 509.74066 1431.2031 510.954 1430.3898 513.774 C 1429.5998 516.534 1428.8098 519.294 1428.0498 522.054 C 1427.1898 525.154 1427.7098 525.994 1430.7598 526.654 C 1431.0798 526.724 1432.1898 526.374 1431.5798 527.494 L 1414.6998 527.494 Z" fill="#ed1c24"/>
      </g>
      <g id="Graphic_74">
        <path d="M 1377.5698 527.494 C 1377.7098 527.174 1377.7698 526.624 1377.9898 526.564 C 1380.8098 525.674 1382.4398 523.374 1384.1998 521.284 C 1391.9998 512.014 1399.7398 502.704 1407.5198 493.424 C 1407.8898 492.984 1408.4298 492.684 1409.2498 492.024 C 1409.2498 493.944 1409.2998 495.284 1409.2498 496.624 C 1408.9098 505.424 1408.5398 514.224 1408.1798 523.024 C 1408.1098 524.704 1408.6198 526.004 1410.3998 526.554 C 1410.6698 526.634 1410.8098 527.174 1411.0098 527.504 L 1396.1498 527.504 C 1396.6498 527.174 1397.1198 526.604 1397.6398 526.564 C 1399.1498 526.434 1400.1898 525.634 1400.4398 524.284 C 1400.9098 521.724 1401.0998 519.104 1401.4398 516.284 C 1397.7398 516.284 1394.4398 516.284 1391.1498 516.304 C 1390.8498 516.304 1390.4498 516.454 1390.2698 516.674 C 1388.5698 518.764 1386.7898 520.804 1385.2698 523.034 C 1384.0198 524.864 1384.5098 525.764 1386.6098 526.544 C 1386.9398 526.664 1387.1198 527.174 1387.3798 527.504 L 1377.5698 527.504 Z M 1401.8998 503.444 C 1401.7698 503.404 1401.6398 503.364 1401.5098 503.324 C 1398.4898 506.894 1395.4598 510.464 1392.3198 514.174 L 1401.2098 514.174 C 1401.4398 510.514 1401.6698 506.974 1401.8898 503.444 Z" fill="#ed1c24"/>
      </g>
      <g id="Graphic_73">
        <path d="M 1436.6598 453.494 C 1436.5698 453.804 1436.5798 454.304 1436.3898 454.404 C 1432.1398 456.554 1429.8598 460.674 1426.8798 464.054 C 1420.0198 471.814 1413.3498 479.734 1406.5798 487.574 C 1406.1898 488.024 1405.6098 488.304 1404.9898 488.754 C 1404.9898 485.504 1404.9198 482.594 1405.0098 479.694 C 1405.1498 475.244 1405.4198 470.784 1405.6098 466.334 C 1405.7398 463.464 1405.8298 460.584 1405.9398 457.704 C 1406.0098 456.044 1405.4298 454.884 1403.6998 454.434 C 1403.3698 454.354 1403.1598 453.824 1402.8898 453.494 C 1407.7298 453.494 1412.5698 453.494 1417.4098 453.494 C 1417.1798 453.794 1416.9698 454.324 1416.6998 454.354 C 1413.5598 454.664 1413.2298 457.134 1413.0798 459.424 C 1412.7098 465.004 1412.5598 470.594 1412.3298 476.174 C 1412.3098 476.694 1412.3298 477.214 1412.3298 478.014 C 1412.7798 477.634 1412.9598 477.514 1413.0998 477.354 C 1417.7398 471.984 1422.3898 466.624 1426.9798 461.204 C 1427.8798 460.144 1428.6198 458.924 1429.2798 457.694 C 1429.9898 456.384 1429.6498 455.344 1428.1998 454.684 C 1427.7898 454.484 1427.5398 453.904 1427.2098 453.494 C 1430.3598 453.494 1433.5098 453.494 1436.6598 453.494 Z" fill="#ed1c24"/>
      </g>
      <g id="Graphic_72">
        <path d="M 1454.8898 453.494 C 1454.6098 453.814 1454.3398 454.384 1454.0398 454.394 C 1451.3598 454.524 1450.1598 456.384 1449.5198 458.554 C 1447.1098 466.754 1444.8198 474.994 1442.5298 483.224 C 1441.8598 485.614 1442.3998 486.424 1444.7798 486.984 C 1445.2598 487.094 1445.7598 487.154 1446.2498 487.544 L 1429.3798 487.544 C 1429.6898 487.334 1429.8498 487.144 1429.9998 487.144 C 1432.7898 487.114 1434.3698 485.494 1435.0898 483.014 C 1437.4798 474.814 1439.8298 466.604 1442.0998 458.364 C 1442.8098 455.774 1442.1198 454.864 1439.4498 454.504 C 1438.7298 454.414 1438.2998 454.304 1438.3498 453.494 C 1443.8598 453.494 1449.3798 453.494 1454.8898 453.494 Z" fill="#ed1c24"/>
      </g>
    </g>
  </g>
</svg>
